<svg xmlns="http://www.w3.org/2000/svg" xmlns:xlink="http://www.w3.org/1999/xlink" xmlns:inkscape="http://www.inkscape.org/namespaces/inkscape" version="1.1" width="2351.29" height="1662.53" viewBox="0 0 2351.29 1662.53">
<defs>
<clipPath id="clip_1">
<path transform="matrix(1,0,0,-1,0,1662.53)" d="M0 1662.53H2351.29V0H0Z"/>
</clipPath>
</defs>
<g inkscape:groupmode="layer" inkscape:label="Camada 1">
<g clip-path="url(#clip_1)">
<path transform="matrix(1,0,0,-1,1690.2991,1202.3026)" d="M0 0C0 0 20.905 7.559 12.229 30.396 12.155 30.59 12.05 30.795 11.936 30.97 .779 47.952-10.941 44.348-18.092 42.023-18.314 41.951-18.523 41.863-18.708 41.72-22.318 38.893-90.069 8.938-100.083 4.518-100.86 4.175-101.738 4.281-102.426 4.779L-230.354 97.602C-231.047 98.104-231.956 98.197-232.736 97.845L-258.169 86.373C-259.641 85.709-260.042 83.806-258.964 82.604L-164.794-22.342C-163.714-23.545-164.118-25.452-165.594-26.113L-230.558-55.236C-231.085-55.473-231.681-55.51-232.232-55.341L-292.508-36.896C-293.071-36.723-293.678-36.765-294.212-37.013L-312.278-45.402C-313.715-46.069-314.115-47.925-313.081-49.125L-272.343-96.392C-272.05-96.731-271.858-97.147-271.791-97.591L-262.213-160.649C-261.976-162.211-260.316-163.115-258.876-162.469L-241.937-154.861C-241.427-154.632-241.013-154.23-240.768-153.727L-213.229-97.01C-212.985-96.51-212.575-96.109-212.069-95.88L-147.359-66.479C-145.899-65.816-144.215-66.752-144.006-68.342L-125.873-206.298C-125.664-207.883-123.987-208.818-122.529-208.164L-97.608-196.973C-96.818-196.617-96.282-195.862-96.208-194.998L-82.882-38.948C-82.809-38.088-82.276-37.334-81.49-36.978Z" fill="#bc2035"/>
<path transform="matrix(1,0,0,-1,189.8435,802.8056)" d="M0 0-11.387-40.087H21.344C29.582-40.087 36.685-38.248 42.656-34.572 48.618-30.901 52.525-25.72 54.372-19.039 54.444-18.373 54.647-17.485 54.996-16.367 55.334-15.257 55.523-14.586 55.547-14.365 56.251-7.906 54.238-3.897 49.512-2.339 44.782-.781 37.518 0 27.722 0ZM-23.848-83.855-36.384-128.304H-1.974C8.939-128.304 17.799-126.687 24.615-123.458 31.421-120.229 35.949-114.492 38.185-106.245 38.281-105.357 38.485-104.465 38.809-103.572 39.172-102.235 39.373-101.458 39.397-101.231 40.198-93.883 37.482-89.148 31.259-87.03 25.026-84.917 15.012-83.855 1.207-83.855ZM-131.388-184.455-62.673 56.11H52.21C65.12 56.11 76.724 55.329 87.019 53.776 97.313 52.214 106.21 49.6 113.719 45.925 121.218 42.25 126.797 37.244 130.447 30.897 134.101 24.55 135.429 16.81 134.435 7.684 134.022 3.893 133.253-.115 132.123-4.341 128.885-15.701 122.982-25.889 114.432-34.91 105.877-43.932 96.29-51.226 85.661-56.793 95.61-59.466 102.898-64.644 107.521-72.329 112.136-80.015 113.865-89.202 112.701-99.895 112.289-103.688 111.403-107.697 110.055-111.925 102.808-137.55 88.598-156.045 67.431-167.406 46.257-178.773 19.073-184.455-14.111-184.455Z" fill="#21274f"/>
<path transform="matrix(1,0,0,-1,361.5003,812.1586)" d="M0 0H63.127L53.266-35.413H53.936C62.782-21.606 72.518-11.413 83.143-4.843 93.762 1.723 105.757 5.012 119.116 5.012 120.453 5.012 122.43 4.785 125.053 4.341L128.026 4.008 108.123-65.48C106.81-65.262 105.383-65.036 103.854-64.814 99.493-63.926 96.315-63.478 94.313-63.478 79.615-63.478 67.664-67.376 58.467-75.173 49.27-82.971 42.106-96.115 36.98-114.603L19.714-175.102H-49.785Z" fill="#21274f"/>
<path transform="matrix(1,0,0,-1,582.848,940.96878)" d="M0 0C7.205 7.91 12.177 18.324 14.913 31.247 8.85 28.796 .017 26.345-11.609 23.897-22.097 21.668-29.983 19.271-35.272 16.712-40.558 14.149-44.126 9.526-45.961 2.843-46.01 2.394-46.046 2.061-46.07 1.839L-46.548 .502C-46.958-3.286-45.504-6.298-42.181-8.523-38.862-10.753-34.192-11.863-28.176-11.863-16.597-11.863-7.201-7.91 0 0M-.165-46.292 1.862-27.573C-9.997-36.262-21.628-42.396-33.042-45.959-44.453-49.521-57.065-51.307-70.874-51.307-86.694-51.307-99.28-47.74-108.639-40.61-118.006-33.48-121.918-22.892-120.395-8.856-120.056-5.738-119.348-2.287-118.266 1.506-115.03 12.871-109.895 22.228-102.86 29.578-95.83 36.932-87.809 42.611-78.797 46.621-69.791 50.631-60.742 53.473-51.651 55.143-42.565 56.812-31.701 58.428-19.054 59.986-3.72 61.767 7.571 63.716 14.814 65.834 22.061 67.948 26.44 71.899 27.959 77.693 28.007 78.138 28.162 78.582 28.437 79.03 28.485 79.474 28.521 79.812 28.545 80.033 29.052 84.713 27.279 87.888 23.229 89.557 19.18 91.227 14.592 92.061 9.474 92.061 3.233 92.061-2.513 90.894-7.778 88.554-13.038 86.214-17.038 81.707-19.764 75.021H-86.574C-81.129 94.4-69.412 109.042-51.413 118.955-33.419 128.863-7.716 133.822 25.683 133.822 41.049 133.822 53.792 132.761 63.918 130.648 74.044 128.531 81.734 125.521 86.99 121.628 92.245 117.73 95.747 113.051 97.497 107.6 99.246 102.139 99.721 95.737 98.926 88.39 98.227 81.925 96.253 72.903 92.994 61.323L62.521-46.292Z" fill="#21274f"/>
<path transform="matrix(1,0,0,-1,758.2913,932.77926)" d="M0 0C-.048-.448-.248-1.226-.59-2.34-.687-3.233-.758-3.899-.807-4.343-1.312-9.024-.174-12.924 2.61-16.042 6.234-19.608 11.498-21.39 18.402-21.39 24.635-21.39 30.17-20.168 35.003-17.712 39.831-15.265 43.101-11.254 44.821-5.68L44.929-4.677 45.001-4.01C45.481 .444 43.217 3.73 38.211 5.85 33.205 7.963 24.932 10.246 13.397 12.702 3.589 14.705-4.229 16.543-10.064 18.213-15.895 19.887-21.646 22.334-27.307 25.567-32.974 28.795-37.3 33.085-40.283 38.432-43.27 43.777-44.34 50.345-43.497 58.146-43.185 61.037-42.502 64.27-41.447 67.835-38.512 78.526-33.517 87.658-26.462 95.232-19.413 102.802-11.191 108.813-1.802 113.27 7.583 117.722 17.393 120.896 27.615 122.792 37.841 124.683 47.85 125.632 57.65 125.632 67.889 125.632 77.39 124.962 86.154 123.626 94.914 122.29 102.781 119.839 109.747 116.279 116.708 112.715 122.061 107.645 125.81 101.079 129.554 94.504 130.9 86.322 129.845 76.523 129.773 75.854 129.55 74.854 129.188 73.518 129.02 71.955 128.912 70.951 128.864 70.508H65.73C66.354 76.297 65.36 80.533 62.758 83.205 59.95 86.096 55.654 87.548 49.866 87.548 43.63 87.548 38.51 86.544 34.512 84.542 30.505 82.535 27.829 79.414 26.485 75.188 26.052 71.178 28.441 68.057 33.661 65.832 38.875 63.604 47.129 61.152 58.422 58.479 68.399 56.028 76.514 53.853 82.774 51.966 89.024 50.069 95.083 47.396 100.949 43.946 106.808 40.487 111.34 36.033 114.54 30.58 117.737 25.118 118.919 18.493 118.079 10.694 117.767 7.799 117.216 4.788 116.437 1.67 111.058-17.268 98.865-32.2 79.872-43.114 60.872-54.037 35.783-59.496 4.601-59.496-5.646-59.496-15.249-58.661-24.197-56.986-33.154-55.316-41.083-52.474-48.002-48.462-54.917-44.451-60.121-38.996-63.605-32.085-67.09-25.183-68.305-16.823-67.245-7.017-67.196-6.573-67.077-5.463-66.883-3.677-66.517-2.34-66.27-1.119-66.148 0Z" fill="#21274f"/>
<path transform="matrix(1,0,0,-1,960.3987,740.349)" d="M0 0H69.456L55.463-49.429H-14ZM-70-246.912-20.416-71.81H49.063L-.501-246.912Z" fill="#21274f"/>
<path transform="matrix(1,0,0,-1,1001.6517,987.26077)" d="M0 0 68.261 240.565H137.73L69.494 0Z" fill="#21274f"/>
<path transform="matrix(1,0,0,-1,1145.0554,812.1586)" d="M0 0H69.47L68.984-110.592 130.596 0H197.395L88.806-175.102H11.293Z" fill="#bc2035"/>
<path transform="matrix(1,0,0,-1,1386.8489,740.349)" d="M0 0H69.46L55.509-49.429H-13.958ZM-69.791-246.912-20.36-71.81H49.119L-.297-246.912Z" fill="#bc2035"/>
<path transform="matrix(1,0,0,-1,1555.8108,930.4384)" d="M0 0C7.177 7.794 12.381 17.488 15.62 29.074 16.981 33.528 17.875 37.76 18.302 41.77 19.179 50.011 18.052 56.693 14.93 61.817 11.8 66.941 5.999 69.503-2.461 69.503-13.149 69.503-21.877 65.494-28.626 57.476-35.383 49.456-40.378 39.651-43.617 28.071-45.051 22.941-45.993 18.266-46.443 14.033-47.273 6.235-46.269 0-43.429-4.681-40.588-9.357-35.27-11.698-27.474-11.698-16.34-11.698-7.179-7.804 0 0M-3.878-56.822 2.624-33.422C-8.293-43.9-18.436-51.256-27.792-55.485-37.148-59.714-47.622-61.837-59.201-61.837-80.585-61.837-96.194-55.653-106.011-43.283-115.828-30.917-119.655-14.599-117.493 5.68-116.758 12.586-115.436 19.824-113.508 27.405-109.316 41.654-103.701 54.687-96.646 66.497-89.6 78.299-81.506 88.435-72.366 96.9-63.227 105.362-53.451 111.874-43.059 116.442-32.666 121.005-22.348 123.292-12.104 123.292-.75 123.292 8.535 121.623 15.751 118.28 22.968 114.942 28.909 109.038 33.575 100.576L57.117 183.743H126.578L58.601-56.822Z" fill="#bc2035"/>
<path transform="matrix(1,0,0,-1,1770.5012,940.96878)" d="M0 0C7.187 7.91 12.135 18.324 14.84 31.247 8.782 28.796-.045 26.345-11.665 23.897-22.146 21.668-30.028 19.271-35.312 16.712-40.591 14.149-44.148 9.526-45.967 2.843-46.015 2.394-46.05 2.061-46.073 1.839L-46.549 .502C-46.95-3.286-45.489-6.298-42.16-8.523-38.836-10.753-34.163-11.863-28.147-11.863-16.569-11.863-7.182-7.91 0 0M-.056-46.292 1.928-27.573C-9.91-36.262-21.527-42.396-32.934-45.959-44.336-49.521-56.944-51.307-70.752-51.307-86.572-51.307-99.167-47.74-108.542-40.61-117.926-33.48-121.863-22.892-120.373-8.856-120.042-5.738-119.343-2.287-118.27 1.506-115.061 12.871-109.947 22.228-102.93 29.578-95.916 36.932-87.908 42.611-78.906 46.621-69.909 50.631-60.867 53.473-51.78 55.143-42.699 56.812-31.838 58.428-19.195 59.986-3.864 61.767 7.422 63.716 14.659 65.834 21.901 67.948 26.271 71.899 27.776 77.693 27.823 78.138 27.978 78.582 28.251 79.03 28.298 79.474 28.334 79.812 28.357 80.033 28.853 84.713 27.072 87.888 23.019 89.557 18.965 91.227 14.375 92.061 9.258 92.061 3.017 92.061-2.727 90.894-7.986 88.554-13.241 86.214-17.229 81.707-19.94 75.021H-86.75C-81.352 94.4-69.668 109.042-51.692 118.955-33.722 128.863-8.03 133.822 25.368 133.822 40.734 133.822 53.479 132.761 63.61 130.648 73.741 128.531 81.438 125.521 86.704 121.628 91.968 117.73 95.481 113.051 97.243 107.6 99.005 102.139 99.495 95.737 98.718 88.39 98.034 81.925 96.081 72.903 92.851 61.323L62.631-46.292Z" fill="#bc2035"/>
<path transform="matrix(1,0,0,-1,2294.5589,550.1185)" d="M0 0C-.597 28.806-5.129 57.576-13.037 85.272-19.76 108.815-30.298 130.484-45.063 150.059-70.305 183.521-104.226 208.359-143.031 223.732-172.775 235.516-204.354 242.228-236.185 244.985-271.609 248.055-307.353 246.322-342.533 241.432-382.563 235.867-421.974 226.221-460.464 213.981-503.892 200.172-546.227 183.023-587.471 163.678-633.217 142.22-677.657 118.023-720.907 91.916-768.362 63.271-814.401 32.299-859.159-.391-883.034-17.829-906.546-35.764-929.711-54.135-938.78-61.327-947.897-71.454-959.93-73.101-968.76-74.309-977.935-71.315-984.326-65.097-992.504-57.142-993.725-45.029-996.596-34.527-1000.123-21.625-1003.951-8.806-1008.104 3.908-1015.943 27.907-1024.937 51.538-1035.246 74.587-1053.729 115.908-1076.488 155.557-1104.723 191.018-1133.602 227.289-1168.522 259.318-1209.523 281.37-1255.332 306.008-1307.58 316.493-1359.185 308.671-1408.552 301.189-1454.669 278.221-1492.585 246.061-1535.087 210.01-1568.147 164.074-1589.406 112.62-1611.025 60.293-1619.271 3.422-1618.834-52.942-1618.395-109.753-1608.403-166.521-1592.819-221.045-1589.723-231.877-1587.809-242.898-1578.354-250.134-1569.918-256.59-1558.371-258.057-1548.586-253.919-1539.227-249.961-1532.351-241.257-1530.714-231.221-1529.425-223.323-1532.189-215.103-1533.988-207.482-1539.441-184.387-1541.588-160.513-1542.387-136.822-1543.352-108.201-1541.786-79.444-1536.652-51.242-1526.435 4.887-1502.163 57.542-1463.831 100.033-1429.569 138.013-1385.287 167.412-1334.844 178.239-1282.842 189.401-1230.125 178.346-1184.823 151.17-1138.795 123.56-1102.727 80.956-1075.418 35.315-1049.023-8.797-1029.938-57.086-1016.115-106.508-1013.08-117.36-1011.084-128.773-1001.167-135.613-993.232-141.086-982.765-142.109-973.927-138.261-968.106-135.726-963.39-131.387-958.47-127.485-952.632-122.854-946.768-118.255-940.878-113.69-929.111-104.573-917.241-95.59-905.262-86.754-860.683-53.871-814.602-22.963-766.831 5.101-723.959 30.289-679.697 53.234-633.912 72.671-593.952 89.634-552.76 103.985-510.474 113.936-473.824 122.561-436.213 127.922-398.508 127.717-365.763 127.539-332.866 123.06-301.82 112.413-286.746 107.243-271.712 100.798-258.227 92.249-237.338 79.006-218.89 61.657-204.607 41.451-189.112 19.531-180.851-5.006-175.319-31.075-169.483-58.585-168.593-86.779-170.913-114.733-175.576-170.902-198.68-225.326-228.057-272.822-258.098-321.392-295.938-365.128-337.034-404.636-378.411-444.416-423.173-480.551-469.907-513.833-481.562-522.132-493.341-530.253-505.229-538.214-517.441-546.39-530.049-554.003-542.209-562.245-551.858-568.784-555.339-583.064-551.906-593.757-548.722-603.681-540.145-611.25-529.896-613.169-517.05-615.576-506.946-607.877-496.426-601.713-483.884-594.366-471.412-586.899-459.026-579.292-433.992-563.916-409.307-547.982-385.012-531.462-336.865-498.724-290.251-463.672-246.17-425.615-202.558-387.961-161.162-347.391-124.501-302.878-88.661-259.361-56.999-211.937-34.245-160.231-12.071-109.845 1.177-55.258 0 0-.136 6.547 .019-.883 0 0" fill="#bc2035"/>
<path transform="matrix(1,0,0,-1,1342.6712,1308.0907)" d="M0 0C-5.441-.543-11.211-3.563-16.383-5.313-22.772-7.476-29.173-9.605-35.585-11.7-48.422-15.895-61.302-19.952-74.228-23.864-99.114-31.396-124.165-38.394-149.375-44.763-155.455-46.299-161.547-47.791-167.632-49.307-170.325-49.978-173.023-50.629-175.723-51.27-177.116-51.6-178.666-52.171-180.1-52.3-181.88-52.459-180.873-52.677-182.438-51.72-188.035-48.297-193.106-42.877-198.103-38.622-203.06-34.4-207.985-30.143-212.888-25.859-232.62-8.624-251.888 9.133-270.713 27.354-308.707 64.128-344.629 103.019-378.132 143.931-411.103 184.193-441.694 226.444-469.154 270.66-472.262 275.664-475.442 280.801-478.435 285.77-480.897 289.858-483.668 293.414-488.132 295.644-496.78 299.961-507.571 297.508-513.602 289.994-519.042 283.215-519.345 274.312-515.354 266.82-510.087 256.931-503.139 247.66-496.888 238.371-467.345 194.467-435.266 152.281-401.123 111.857-367.343 71.863-331.688 33.438-294.151-3.08-275.034-21.679-255.538-39.886-235.616-57.618-225.543-66.584-215.403-75.466-205.138-84.21-200.115-88.489-195.076-92.75-189.986-96.95-188.853-97.886-187.717-98.817-186.582-99.75-185.079-100.985-184.729-101.626-182.934-101.47-179.923-101.207-176.71-100.016-173.766-99.301-133.171-89.443-93.111-77.323-53.171-65.122-35.321-59.67-17.5-54.125 .295-48.5 8.094-46.034 16.488-44.329 21.993-37.752 28.387-30.111 29.184-18.946 23.867-10.502 18.859-2.546 9.239 1.646 0 0-.322-.032 12.2 2.174 0 0" fill="#bc2035"/>
</g>
</g>
</svg>
